<?xml version="1.0" encoding="iso-8859-1"?>
<!-- Generator: Adobe Illustrator 16.0.0, SVG Export Plug-In . SVG Version: 6.00 Build 0)  -->
<!DOCTYPE svg PUBLIC "-//W3C//DTD SVG 1.1//EN" "http://www.w3.org/Graphics/SVG/1.1/DTD/svg11.dtd">
<svg version="1.1" id="Capa_1" xmlns="http://www.w3.org/2000/svg" xmlns:xlink="http://www.w3.org/1999/xlink" x="0px" y="0px"
	 width="87.755px" height="87.755px" viewBox="0 0 87.755 87.755" style="enable-background:new 0 0 87.755 87.755;"
	 xml:space="preserve">
<g>
	<g>
		<path d="M59.3,87.755H19.838c-2.063,0-3.742-1.679-3.742-3.742c0-2.062,1.679-3.741,3.742-3.741H59.3
			c2.062,0,3.74,1.679,3.74,3.741C63.04,86.076,61.362,87.755,59.3,87.755z M19.838,83.271c-0.409,0-0.742,0.332-0.742,0.741
			s0.333,0.742,0.742,0.742H59.3c0.408,0,0.74-0.333,0.74-0.742s-0.332-0.741-0.74-0.741H19.838z M56.945,79.336
			c-2.123,0-3.903-0.782-5.293-2.325c-0.926-1.026-1.539-2.335-1.833-3.905c-0.908,0.869-1.814,1.639-2.712,2.301
			c-1.731,1.279-3.637,2.265-5.665,2.93c-2.024,0.664-4.256,1-6.633,1c-3.171,0-6.155-0.684-8.868-2.031
			c-2.704-1.344-5.072-3.283-7.037-5.767c-1.947-2.458-3.44-5.375-4.438-8.672c-0.987-3.257-1.487-6.823-1.487-10.601
			c0-8.049,2.025-14.445,6.018-19.014c4.045-4.627,9.426-6.974,15.993-6.974c3.772,0,7.022,0.669,9.661,1.988
			c1.602,0.801,3.277,1.729,4.967,3.072V17.803h-5.715c-2.063,0-3.742-1.679-3.742-3.742s1.679-3.742,3.742-3.742h5.715V9.18
			c0-2.86,0.616-5.101,1.832-6.659C52.753,0.848,54.603,0,56.947,0c2.318,0,4.154,0.779,5.458,2.314
			c1.241,1.463,1.87,3.561,1.87,6.233v1.771h6.759c2.062,0,3.741,1.679,3.741,3.742s-1.679,3.742-3.741,3.742h-6.759v52.986
			c0,2.729-0.683,4.849-2.024,6.303C60.876,78.581,59.091,79.336,56.945,79.336z M51.118,68.068c0.176,0,0.354,0.031,0.526,0.096
			c0.586,0.22,0.974,0.779,0.974,1.404v1.222c0,1.866,0.426,3.282,1.264,4.213c0.82,0.91,1.793,1.333,3.064,1.333
			c1.292,0,2.305-0.418,3.098-1.277c0.817-0.884,1.23-2.32,1.23-4.27V16.303c0-0.829,0.671-1.5,1.5-1.5h8.258
			c0.409,0,0.742-0.333,0.742-0.742c0-0.409-0.333-0.742-0.742-0.742h-8.258c-0.829,0-1.5-0.671-1.5-1.5V8.548
			c0-1.942-0.391-3.387-1.158-4.292c-0.717-0.845-1.754-1.255-3.17-1.255c-1.41,0-2.406,0.434-3.131,1.365
			c-0.794,1.019-1.197,2.639-1.197,4.815v2.639c0,0.829-0.671,1.5-1.5,1.5h-7.215c-0.409,0-0.742,0.333-0.742,0.742
			c0,0.409,0.333,0.742,0.742,0.742h7.215c0.829,0,1.5,0.671,1.5,1.5v18.482c0,0.619-0.38,1.174-0.955,1.398
			c-0.578,0.226-1.232,0.072-1.649-0.384c-2.228-2.429-4.538-3.765-6.703-4.848c-2.218-1.109-5.018-1.672-8.319-1.672
			c-5.743,0-10.235,1.946-13.734,5.948c-3.501,4.005-5.277,9.738-5.277,17.038c0,3.482,0.457,6.756,1.358,9.731
			c0.888,2.935,2.207,5.519,3.919,7.679c1.689,2.135,3.715,3.797,6.02,4.943c2.294,1.14,4.829,1.717,7.533,1.717
			c2.06,0,3.977-0.286,5.699-0.852c1.723-0.564,3.344-1.402,4.818-2.491c1.52-1.123,3.088-2.606,4.662-4.411
			C50.277,68.25,50.692,68.068,51.118,68.068z M36.811,69.805c-2.426,0-4.694-0.684-6.743-2.031
			c-2.043-1.345-3.664-3.349-4.817-5.955c-1.119-2.53-1.687-5.606-1.687-9.146c0-3.343,0.531-6.338,1.579-8.901
			c1.083-2.649,2.646-4.723,4.646-6.163c2.029-1.461,4.361-2.203,6.93-2.203c2.467,0,4.767,0.719,6.835,2.138
			c2.042,1.399,3.675,3.432,4.856,6.04c1.152,2.549,1.737,5.607,1.737,9.089c0,3.694-0.586,6.845-1.741,9.366
			c-1.188,2.593-2.82,4.558-4.856,5.839C41.522,69.156,39.255,69.805,36.811,69.805z M36.719,38.407
			c-1.955,0-3.648,0.536-5.177,1.637c-1.537,1.106-2.755,2.742-3.622,4.862c-0.9,2.203-1.356,4.815-1.356,7.768
			c0,3.118,0.481,5.786,1.43,7.932c0.916,2.07,2.168,3.64,3.723,4.662c1.572,1.035,3.238,1.538,5.093,1.538
			c1.896,0,3.578-0.479,5.141-1.464c1.533-0.966,2.788-2.497,3.728-4.551c0.974-2.126,1.468-4.857,1.468-8.117
			c0-3.052-0.495-5.693-1.471-7.854c-0.95-2.101-2.235-3.715-3.818-4.801C40.275,38.934,38.596,38.407,36.719,38.407z"/>
	</g>
</g>
<g>
</g>
<g>
</g>
<g>
</g>
<g>
</g>
<g>
</g>
<g>
</g>
<g>
</g>
<g>
</g>
<g>
</g>
<g>
</g>
<g>
</g>
<g>
</g>
<g>
</g>
<g>
</g>
<g>
</g>
</svg>
